# Blender OBJ File: /home/william/Documents/Blender/cube2.obj
# www.blender.org
#StarLogoCommand ComputeNormals
mtllib cube2.mtl
o o_Cube_Cube.001_o_Cube_Cube.001
v 1.89999997616 1.69999980927 -1.89999997616
v 1.89999997616 -2.09999990463 -1.89999997616
v -1.90000021458 -2.09999966621 -1.89999997616
v -1.8999992609 1.70000064373 -1.89999997616
v 1.90000092983 1.69999885559 1.89999997616
v -1.89999985695 1.69999992847 1.89999997616
v -1.90000069141 -2.09999918938 1.89999997616
v 1.89999878407 -2.10000109673 1.89999997616
v 1.89757347107 1.69999980927 -1.89757347107
v -1.89757275581 1.70000064373 -1.89757347107
v 1.89757442474 1.69999885559 1.89757347107
v -1.89757335186 1.69999992847 1.89757347107
v 1.8969233036 1.69692122936 1.89999997616
v -1.89692223072 1.69692230225 1.89999997616
v -1.89692306519 -2.09692144394 1.89999997616
v 1.89692115784 -2.09692335129 1.89999997616
v -1.90000021458 -2.09767150879 -1.89767193794
v -1.8999992609 1.69767260551 -1.89767193794
v -1.89999985695 1.69767189026 1.89767193794
v -1.90000069141 -2.09767103195 1.89767193794
v 1.89999997616 1.69586610794 -1.89586627483
v 1.89999997616 -2.09586620331 -1.89586627483
v 1.90000092983 1.69586515427 1.89586627483
v 1.89999878407 -2.0958673954 1.89586627483
v 1.89706778526 -2.09999990463 -1.89706766605
v -1.89706778526 -2.09999966621 -1.89706766605
v -1.8970682621 -2.09999918938 1.89706766605
v 1.89706659317 -2.10000109673 1.89706766605
v 1.89703536034 1.69703519344 -1.89999997616
v 1.89703536034 -2.0970351696 -1.89999997616
v -1.89703559875 -2.09703493118 -1.89999997616
v -1.89703464508 1.69703602791 -1.89999997616
vt 0.0 0.0 0.0
vt 0.0 0.0 0.0
vt 0.0 0.0 0.0
vt 0.0 0.0 0.0
vt 0.0 0.0 0.0
vt 0.0 0.0 0.0
vt 0.0 0.0 0.0
vt 0.0 0.0 0.0
vt 0.0 0.0 0.0
vt 0.0 0.0 0.0
vt 0.0 0.0 0.0
vt 0.0 0.0 0.0
vt 0.0 0.0 0.0
vt 0.0 0.0 0.0
vt 0.0 0.0 0.0
vt 0.0 0.0 0.0
vt 0.0 1.0 0.0
vt 0.0 0.0 0.0
vt 1.0 0.0 0.0
vt 1.0 1.0 0.0
vt 0.0 0.0 0.0
vt 0.0 0.0 0.0
vt 0.0 0.0 0.0
vt 0.0 0.0 0.0
vt 0.0 0.0 0.0
vt 0.0 0.0 0.0
vt 0.0 0.0 0.0
vt 0.0 0.0 0.0
vt 0.0 0.0 0.0
vt 0.0 0.0 0.0
vt 0.0 0.0 0.0
vt 0.0 0.0 0.0
vt 0.0 0.0 0.0
vt 0.0 0.0 0.0
vt 0.0 0.0 0.0
vt 0.0 0.0 0.0
vt 0.0 1.0 0.0
vt 0.0 0.0 0.0
vt 1.0 0.0 0.0
vt 1.0 1.0 0.0
vt 0.0 0.0 0.0
vt 0.0 0.0 0.0
vt 0.0 0.0 0.0
vt 0.0 0.0 0.0
vt 0.0 0.0 0.0
vt 0.0 0.0 0.0
vt 0.0 0.0 0.0
vt 0.0 0.0 0.0
vt 0.0 0.0 0.0
vt 0.0 0.0 0.0
vt 0.0 0.0 0.0
vt 0.0 0.0 0.0
vt 0.0 0.0 0.0
vt 0.0 0.0 0.0
vt 0.0 0.0 0.0
vt 0.0 0.0 0.0
vt 0.0 1.0 0.0
vt 1.0 1.0 0.0
vt 1.0 0.0 0.0
vt 0.0 0.0 0.0
vt 0.0 0.0 0.0
vt 0.0 0.0 0.0
vt 0.0 0.0 0.0
vt 0.0 0.0 0.0
vt 0.0 0.0 0.0
vt 0.0 0.0 0.0
vt 0.0 0.0 0.0
vt 0.0 0.0 0.0
vt 0.0 0.0 0.0
vt 0.0 0.0 0.0
vt 0.0 0.0 0.0
vt 0.0 0.0 0.0
vt 0.0 0.0 0.0
vt 0.0 0.0 0.0
vt 0.0 0.0 0.0
vt 0.0 0.0 0.0
vt 0.0 1.0 0.0
vt 1.0 1.0 0.0
vt 1.0 0.0 0.0
vt 0.0 0.0 0.0
vt 0.0 0.0 0.0
vt 0.0 0.0 0.0
vt 0.0 0.0 0.0
vt 0.0 0.0 0.0
vt 0.0 0.0 0.0
vt 0.0 0.0 0.0
vt 0.0 0.0 0.0
vt 0.0 0.0 0.0
vt 0.0 0.0 0.0
vt 0.0 0.0 0.0
vt 0.0 0.0 0.0
vt 0.0 0.0 0.0
vt 0.0 0.0 0.0
vt 0.0 0.0 0.0
vt 0.0 0.0 0.0
vt 0.0 0.0 0.0
vt 0.0 1.0 0.0
vt 0.0 0.0 0.0
vt 1.0 0.0 0.0
vt 1.0 1.0 0.0
vt 0.0 0.0 0.0
vt 0.0 0.0 0.0
vt 0.0 0.0 0.0
vt 0.0 0.0 0.0
vt 0.0 0.0 0.0
vt 0.0 0.0 0.0
vt 0.0 0.0 0.0
vt 0.0 0.0 0.0
vt 0.0 0.0 0.0
vt 0.0 0.0 0.0
vt 0.0 0.0 0.0
vt 0.0 0.0 0.0
vt 0.0 0.0 0.0
vt 0.0 0.0 0.0
vt 0.0 0.0 0.0
vt 0.0 0.0 0.0
vt 0.0 1.0 0.0
vt 0.0 0.0 0.0
vt 1.0 0.0 0.0
vt 1.0 1.0 0.0
vn 0.577350258827 0.577350258827 -0.577350258827
vn -0.577350258827 0.577350258827 -0.577350258827
vn 0.0 1.0 0.0
vn 0.0 1.0 0.0
vn -0.577350258827 0.577350258827 0.577350258827
vn 0.577350258827 0.577350258827 0.577350258827
vn 0.0 1.0 0.0
vn 0.0 1.0 0.0
vn 0.577350258827 0.577350258827 0.577350258827
vn 0.577350258827 0.577350258827 -0.577350258827
vn 0.0 1.0 0.0
vn 0.0 1.0 0.0
vn -0.577350258827 0.577350258827 -0.577350258827
vn -0.577350258827 0.577350258827 0.577350258827
vn 0.0 1.0 0.0
vn 0.0 1.0 0.0
vn 0.0 1.0 0.0
vn 0.0 1.0 0.0
vn 0.0 1.0 0.0
vn 0.0 1.0 0.0
vn 0.577350258827 0.577350258827 0.577350258827
vn -0.577350258827 0.577350258827 0.577350258827
vn 0.0 0.0 1.0
vn 0.0 0.0 1.0
vn -0.577350258827 0.577350258827 0.577350258827
vn -0.577350258827 -0.577350258827 0.577350258827
vn 0.0 0.0 1.0
vn 0.0 0.0 1.0
vn -0.577350258827 -0.577350258827 0.577350258827
vn 0.577350258827 -0.577350258827 0.577350258827
vn 0.0 0.0 1.0
vn 0.0 0.0 1.0
vn 0.577350258827 -0.577350258827 0.577350258827
vn 0.577350258827 0.577350258827 0.577350258827
vn 0.0 0.0 1.0
vn 0.0 0.0 1.0
vn 0.0 0.0 1.0
vn 0.0 0.0 1.0
vn 0.0 0.0 1.0
vn 0.0 0.0 1.0
vn -0.577350258827 0.577350258827 -0.577350258827
vn -0.577350258827 -0.577350258827 -0.577350258827
vn -1.0 0.0 0.0
vn -1.0 0.0 0.0
vn -0.577350258827 -0.577350258827 0.577350258827
vn -0.577350258827 0.577350258827 0.577350258827
vn -1.0 0.0 0.0
vn -1.0 0.0 0.0
vn -0.577350258827 -0.577350258827 -0.577350258827
vn -0.577350258827 -0.577350258827 0.577350258827
vn -1.0 0.0 0.0
vn -1.0 0.0 0.0
vn -0.577350258827 0.577350258827 0.577350258827
vn -0.577350258827 0.577350258827 -0.577350258827
vn -1.0 0.0 0.0
vn -1.0 0.0 0.0
vn -1.0 0.0 0.0
vn -1.0 0.0 0.0
vn -1.0 0.0 0.0
vn -1.0 0.0 0.0
vn 0.577350258827 -0.577350258827 -0.577350258827
vn 0.577350258827 0.577350258827 -0.577350258827
vn 1.0 0.0 0.0
vn 1.0 0.0 0.0
vn 0.577350258827 0.577350258827 0.577350258827
vn 0.577350258827 -0.577350258827 0.577350258827
vn 1.0 0.0 0.0
vn 1.0 0.0 0.0
vn 0.577350258827 0.577350258827 -0.577350258827
vn 0.577350258827 0.577350258827 0.577350258827
vn 1.0 0.0 0.0
vn 1.0 0.0 0.0
vn 0.577350258827 -0.577350258827 0.577350258827
vn 0.577350258827 -0.577350258827 -0.577350258827
vn 1.0 0.0 0.0
vn 1.0 0.0 0.0
vn 1.0 0.0 0.0
vn 1.0 0.0 0.0
vn 1.0 0.0 0.0
vn 1.0 0.0 0.0
vn -0.577350258827 -0.577350258827 -0.577350258827
vn 0.577350258827 -0.577350258827 -0.577350258827
vn 0.0 -1.0 0.0
vn 0.0 -1.0 0.0
vn 0.577350258827 -0.577350258827 0.577350258827
vn -0.577350258827 -0.577350258827 0.577350258827
vn 0.0 -1.0 0.0
vn 0.0 -1.0 0.0
vn 0.577350258827 -0.577350258827 -0.577350258827
vn 0.577350258827 -0.577350258827 0.577350258827
vn 0.0 -1.0 0.0
vn 0.0 -1.0 0.0
vn -0.577350258827 -0.577350258827 0.577350258827
vn -0.577350258827 -0.577350258827 -0.577350258827
vn 0.0 -1.0 0.0
vn 0.0 -1.0 0.0
vn 0.0 -1.0 0.0
vn 0.0 -1.0 0.0
vn 0.0 -1.0 0.0
vn 0.0 -1.0 0.0
vn 0.577350258827 0.577350258827 -0.577350258827
vn 0.577350258827 -0.577350258827 -0.577350258827
vn 0.0 0.0 -1.0
vn 0.0 0.0 -1.0
vn 0.577350258827 -0.577350258827 -0.577350258827
vn -0.577350258827 -0.577350258827 -0.577350258827
vn 0.0 0.0 -1.0
vn 0.0 0.0 -1.0
vn -0.577350258827 -0.577350258827 -0.577350258827
vn -0.577350258827 0.577350258827 -0.577350258827
vn 0.0 0.0 -1.0
vn 0.0 0.0 -1.0
vn -0.577350258827 0.577350258827 -0.577350258827
vn 0.577350258827 0.577350258827 -0.577350258827
vn 0.0 0.0 -1.0
vn 0.0 0.0 -1.0
vn 0.0 0.0 -1.0
vn 0.0 0.0 -1.0
vn 0.0 0.0 -1.0
vn 0.0 0.0 -1.0
f 1/1/1 4/2/2 10/3/3 9/4/4 
f 6/5/5 5/6/6 11/7/7 12/8/8 
f 5/9/9 1/10/10 9/11/11 11/12/12 
f 4/13/13 6/14/14 12/15/15 10/16/16 
f 9/17/17 10/18/18 12/19/19 11/20/20 
f 5/21/21 6/22/22 14/23/23 13/24/24 
f 6/25/25 7/26/26 15/27/27 14/28/28 
f 7/29/29 8/30/30 16/31/31 15/32/32 
f 8/33/33 5/34/34 13/35/35 16/36/36 
f 13/37/37 14/38/38 15/39/39 16/40/40 
f 4/41/41 3/42/42 17/43/43 18/44/44 
f 7/45/45 6/46/46 19/47/47 20/48/48 
f 3/49/49 7/50/50 20/51/51 17/52/52 
f 6/53/53 4/54/54 18/55/55 19/56/56 
f 17/57/57 20/58/58 19/59/59 18/60/60 
f 2/61/61 1/62/62 21/63/63 22/64/64 
f 5/65/65 8/66/66 24/67/67 23/68/68 
f 1/69/69 5/70/70 23/71/71 21/72/72 
f 8/73/73 2/74/74 22/75/75 24/76/76 
f 21/77/77 23/78/78 24/79/79 22/80/80 
f 3/81/81 2/82/82 25/83/83 26/84/84 
f 8/85/85 7/86/86 27/87/87 28/88/88 
f 2/89/89 8/90/90 28/91/91 25/92/92 
f 7/93/93 3/94/94 26/95/95 27/96/96 
f 26/97/97 25/98/98 28/99/99 27/100/100 
f 1/101/101 2/102/102 30/103/103 29/104/104 
f 2/105/105 3/106/106 31/107/107 30/108/108 
f 3/109/109 4/110/110 32/111/111 31/112/112 
f 4/113/113 1/114/114 29/115/115 32/116/116 
f 29/117/117 30/118/118 31/119/119 32/120/120 
